HIERARCHY
ROOT root
{
	OFFSET 0.000000 0.000000 0.000000
	CHANNELS 6 Xposition Yposition Zposition Zrotation Yrotation Xrotation
	JOINT lhip
	{
		OFFSET 0.058581 -0.082280 -0.017664
		CHANNELS 3 Zrotation Yrotation Xrotation
		JOINT lknee
		{
			OFFSET 0.043451 -0.386469 0.008037
			CHANNELS 3 Zrotation Yrotation Xrotation
			JOINT lankle
			{
				OFFSET -0.014790 -0.426874 -0.037428
				CHANNELS 3 Zrotation Yrotation Xrotation
				JOINT ltoe
				{
					OFFSET 0.041054 -0.060286 0.122042
					CHANNELS 3 Zrotation Yrotation Xrotation
					End Site
					{
						OFFSET 0.000000 0.000000 0.000000
					}
				}
			}
		}
	}
	JOINT rhip
	{
		OFFSET -0.060310 -0.090513 -0.013543
		CHANNELS 3 Zrotation Yrotation Xrotation
		JOINT rknee
		{
			OFFSET -0.043257 -0.383688 -0.004843
			CHANNELS 3 Zrotation Yrotation Xrotation
			JOINT rankle
			{
				OFFSET 0.019056 -0.420046 -0.034562
				CHANNELS 3 Zrotation Yrotation Xrotation
				JOINT rtoe
				{
					OFFSET -0.034840 -0.062106 0.130323
					CHANNELS 3 Zrotation Yrotation Xrotation
					End Site
					{
						OFFSET 0.000000 0.000000 0.000000
					}
				}
			}
		}
	}
	JOINT lowerback
	{
		OFFSET 0.004439 0.124404 -0.038385
		CHANNELS 3 Zrotation Yrotation Xrotation
		JOINT upperback
		{
			OFFSET 0.004488 0.137956 0.026820
			CHANNELS 3 Zrotation Yrotation Xrotation
			JOINT chest
			{
				OFFSET -0.002265 0.056032 0.002855
				CHANNELS 3 Zrotation Yrotation Xrotation
				JOINT lowerneck
				{
					OFFSET -0.013390 0.211636 -0.033468
					CHANNELS 3 Zrotation Yrotation Xrotation
					JOINT upperneck
					{
						OFFSET 0.010113 0.088937 0.050410
						CHANNELS 3 Zrotation Yrotation Xrotation
						End Site
						{
							OFFSET 0.000000 0.000000 0.000000
						}
					}
				}
				JOINT lclavicle
				{
					OFFSET 0.071702 0.114000 -0.018898
					CHANNELS 3 Zrotation Yrotation Xrotation
					JOINT lshoulder
					{
						OFFSET 0.122921 0.045205 -0.019046
						CHANNELS 3 Zrotation Yrotation Xrotation
						JOINT lelbow
						{
							OFFSET 0.255332 -0.015649 -0.022946
							CHANNELS 3 Zrotation Yrotation Xrotation
							JOINT lwrist
							{
								OFFSET 0.265709 0.012698 -0.007375
								CHANNELS 3 Zrotation Yrotation Xrotation
								End Site
								{
									OFFSET 0.000000 0.000000 0.000000
								}
							}
						}
					}
				}
				JOINT rclavicle
				{
					OFFSET -0.082954 0.112472 -0.023707
					CHANNELS 3 Zrotation Yrotation Xrotation
					JOINT rshoulder
					{
						OFFSET -0.113228 0.046853 -0.008472
						CHANNELS 3 Zrotation Yrotation Xrotation
						JOINT relbow
						{
							OFFSET -0.260127 -0.014369 -0.031269
							CHANNELS 3 Zrotation Yrotation Xrotation
							JOINT rwrist
							{
								OFFSET -0.269108 0.006794 -0.006027
								CHANNELS 3 Zrotation Yrotation Xrotation
								End Site
								{
									OFFSET 0.000000 0.000000 0.000000
								}
							}
						}
					}
				}
			}
		}
	}
}
MOTION
Frames: 9
Frame Time: 0.033333
-1.972400 0.350487 1.026016 90.632876 0.238462 88.007171 2.711091 2.320201 4.166808 -3.777865 -9.289461 2.405563 2.592592 7.421570 -11.088666 0.000000 -0.000000 0.000000 -5.687101 -4.577101 -4.546509 2.002474 -3.263644 17.353937 5.935679 -7.708505 -10.722998 0.000000 -0.000000 0.000000 -1.260099 0.632696 9.474728 1.355799 -1.551270 -1.759097 1.169426 -1.755928 1.863500 4.637028 4.429827 -12.092665 -0.494092 -2.718020 4.802482 -28.509987 5.085725 0.189082 -54.094860 -7.022756 7.206122 7.215777 -22.312940 3.895005 -1.841313 -3.182096 -4.718913 32.127488 -1.235385 0.262989 54.666892 4.542847 11.376087 -16.399725 20.846038 -14.660163 3.553642 1.398565 -7.792475 
-1.971762 0.350672 1.025859 90.779979 0.194940 88.029646 2.675530 2.298734 4.236337 -3.771496 -9.350804 2.295907 2.466623 7.370297 -11.077141 0.000000 -0.000000 0.000000 -5.773386 -4.766529 -4.535338 1.723300 -3.529370 17.160147 6.491866 -7.309885 -10.308862 0.000000 -0.000000 0.000000 -1.269840 0.805737 9.401002 1.274646 -1.405849 -1.719745 1.152587 -1.671682 1.945462 4.469645 4.433357 -12.131333 -0.210273 -2.513217 4.448488 -28.571839 5.039027 0.199576 -54.119916 -7.128160 7.318323 7.176874 -22.911922 3.798555 -1.781598 -3.278800 -4.867499 32.014776 -1.346807 0.313765 54.771054 4.465859 11.273188 -16.176663 20.374143 -14.560029 3.740553 1.384782 -7.889007 
-1.971424 0.350832 1.025803 90.892290 0.164246 88.053073 2.589711 2.194324 4.269379 -3.707787 -9.381528 2.202126 2.396592 7.428569 -11.072241 0.000000 -0.000000 0.000000 -5.834863 -4.870425 -4.538305 1.555784 -3.748968 17.232784 6.814646 -7.012518 -10.127281 0.000000 -0.000000 0.000000 -1.222355 0.979118 9.380321 1.172833 -1.240282 -1.612662 1.163336 -1.655897 1.990970 4.488346 4.191566 -12.410575 -0.093221 -2.660130 4.351328 -28.752008 4.833198 0.305566 -54.117185 -7.399873 7.311644 7.416365 -23.779630 3.275548 -1.944244 -3.056703 -5.094142 31.911778 -1.236005 0.426895 54.901572 4.298056 11.161649 -16.273649 20.196328 -14.675265 3.990126 1.215786 -7.747485 
-1.971038 0.350784 1.025900 91.005690 0.138790 87.929761 2.596782 2.235209 4.404610 -3.754030 -9.432265 2.203034 2.503719 7.376163 -11.125139 0.000000 -0.000000 0.000000 -5.876664 -4.910547 -4.335825 1.593033 -3.828869 17.164821 6.614998 -7.185047 -10.306020 0.000000 -0.000000 0.000000 -1.224764 1.113637 9.570341 1.108270 -1.021748 -1.537999 1.140870 -1.564253 1.978648 4.444316 4.181047 -12.485270 -0.061175 -2.586859 4.374483 -28.889875 4.515051 0.351536 -54.215542 -7.734443 7.416841 7.511059 -24.726950 3.058815 -1.641630 -3.118567 -5.410275 31.935332 -1.029242 0.737711 54.877800 4.134948 11.084511 -16.465104 20.104320 -14.816089 3.702992 1.140485 -7.592259 
-1.970667 0.350730 1.025977 91.160904 0.173912 87.919979 2.649831 2.151853 4.453767 -3.730206 -9.352517 2.097293 2.469071 7.288967 -11.028696 0.000000 -0.000000 0.000000 -5.828493 -5.084643 -4.253264 1.518276 -3.891257 17.119474 6.400039 -6.986117 -10.365693 0.000000 -0.000000 0.000000 -1.210657 1.304129 9.541751 1.114487 -0.924570 -1.476655 1.181149 -1.625403 1.961164 4.220879 4.138031 -12.284466 0.032631 -2.461255 4.267404 -28.978378 4.213124 0.577312 -54.429488 -8.004548 7.517610 7.725744 -25.226306 2.987681 -1.663058 -3.152726 -5.419556 31.888177 -1.012693 0.831968 54.801596 4.093572 10.976338 -16.317463 20.176402 -14.625717 4.249494 1.206471 -7.559549 
-1.970463 0.350504 1.025892 91.169149 0.144202 87.894037 2.628815 2.115476 4.457187 -3.719805 -9.303231 2.129542 2.507902 7.224122 -11.026844 0.000000 -0.000000 0.000000 -5.874431 -5.102573 -4.231555 1.474907 -4.014830 17.217761 6.424366 -6.855645 -10.419306 0.000000 -0.000000 0.000000 -1.252001 1.395228 9.551696 1.070552 -0.866741 -1.293279 1.167252 -1.525016 1.948394 4.276471 4.077714 -12.416025 0.000957 -2.565911 4.378392 -28.908771 4.033078 0.685191 -54.633068 -8.284943 7.728205 7.694621 -26.359835 3.080360 -1.748687 -3.484654 -5.668306 31.794651 -0.763169 0.951090 54.925492 4.165865 10.986256 -16.484205 20.242652 -14.600923 4.499263 1.388362 -7.491186 
-1.970240 0.350144 1.025866 91.221698 0.118270 87.905977 2.632961 2.030869 4.446756 -3.738797 -9.311881 2.093171 2.437549 7.226625 -10.970017 0.000000 -0.000000 0.000000 -5.847919 -4.980327 -4.196833 1.475504 -4.082694 17.134883 6.207125 -7.062054 -10.488378 0.000000 -0.000000 0.000000 -1.367773 1.388558 9.499293 1.050707 -0.865919 -1.129401 1.208240 -1.458778 1.929992 4.375505 4.047000 -12.462359 0.184869 -2.603685 4.303404 -28.862035 3.776698 0.761718 -54.920753 -8.560364 7.888638 7.834819 -27.089004 2.950656 -1.648766 -3.370841 -6.000550 31.807232 -0.545134 0.993511 54.944610 4.231833 11.072010 -16.696066 20.603796 -14.537614 4.348727 1.238872 -7.372378 
-1.970256 0.350090 1.026069 91.208104 0.152663 87.920691 2.641440 2.041573 4.407139 -3.669516 -9.186040 2.176822 2.491906 7.138372 -11.001455 0.000000 -0.000000 0.000000 -5.825000 -5.055595 -4.233250 1.431753 -4.144162 17.235640 6.226660 -6.849167 -10.516454 0.000000 -0.000000 0.000000 -1.438306 1.487187 9.663600 1.064999 -0.756375 -1.294661 1.266756 -1.454420 1.935045 4.522041 3.986959 -12.333110 0.220554 -2.686809 4.382642 -28.842404 3.598080 0.837831 -55.130732 -8.719549 8.191995 7.731734 -27.973971 3.403814 -1.668290 -3.893281 -5.852036 31.721526 -0.484043 0.970155 54.977898 4.199177 11.082820 -16.915462 21.159622 -14.666965 4.552861 1.420713 -7.529946 
-1.969902 0.349812 1.026148 91.296523 0.154677 87.994678 2.646445 1.915080 4.413569 -3.651687 -9.213725 2.060184 2.473474 7.203025 -11.129318 0.000000 -0.000000 0.000000 -5.814751 -5.162862 -4.262833 1.440180 -4.201396 17.307742 6.223637 -6.790939 -10.384679 0.000000 -0.000000 0.000000 -1.548522 1.513705 9.539989 1.113147 -0.828314 -1.267843 1.340063 -1.561688 1.954389 4.483624 3.857561 -12.177431 0.189557 -2.648543 4.299721 -28.821591 3.376661 0.941333 -55.330173 -8.823719 8.365736 7.835677 -28.772202 3.474925 -1.800703 -3.827428 -6.093813 31.524841 -0.375513 0.980917 55.102071 4.538701 11.092913 -16.892305 21.681630 -14.513684 4.973621 1.619865 -7.626262 
